# xmcd
#
# Track frame offsets:
#	150
#	22360
#	39612
#	55990
#	70130
#	88445
#	104397
#	119195
#	136157
#	149235
#	167050
#	189202
#	206025
#	224070
#	239402
#	256577
#
# Disc length: 3700 seconds
#
# Revision: 1
# Processed by: cddbd v1.4PL0 Copyright (c) Steve Scherf et al.
# Submitted via: EasyCDDAExtractor 5.0.6
#
DISCID=070e7210
DTITLE=Jay McShann - After Hours
DYEAR=1900
DGENRE=
TTITLE0=After Hours
TTITLE1=Kansas City Blues
TTITLE2=How Long Blues
TTITLE3=The Staggers
TTITLE4=Vognporten Boogie
TTITLE5=Ace In The Hole
TTITLE6=Yardbird Waltz
TTITLE7=Man From Muskogee
TTITLE8=Diblin And Bablin
TTITLE9=Fore Day Rider
TTITLE10=Tain'T Nobody'S Business
TTITLE11=Doo-Wah-Doo
TTITLE12=Hot Biscuits
TTITLE13=Cherry Red
TTITLE14=Jumpin With Mcshann
TTITLE15=After Hours
EXTD=
EXTT0=
EXTT1=
EXTT2=
EXTT3=
EXTT4=
EXTT5=
EXTT6=
EXTT7=
EXTT8=
EXTT9=
EXTT10=
EXTT11=
EXTT12=
EXTT13=
EXTT14=
EXTT15=
PLAYORDER=
